HIERARCHY
ROOT Hips
{
	OFFSET 0.00000 0.00000 0.00000
	CHANNELS 6 Xposition Yposition Zposition Zrotation Yrotation Xrotation 
	JOINT LHipJoint
	{
		OFFSET 0 0 0
		CHANNELS 3 Zrotation Yrotation Xrotation
		JOINT LeftUpLeg
		{
			OFFSET 1.26600 -1.82114 0.91038
			CHANNELS 3 Zrotation Yrotation Xrotation
			JOINT LeftLeg
			{
				OFFSET 2.50076 -6.87080 0.00000
				CHANNELS 3 Zrotation Yrotation Xrotation
				JOINT LeftFoot
				{
					OFFSET 2.57364 -7.07102 0.00000
					CHANNELS 3 Zrotation Yrotation Xrotation
					JOINT LeftToeBase
					{
						OFFSET 0.13572 -0.37290 1.97004
						CHANNELS 3 Zrotation Yrotation Xrotation
						End Site
						{
							OFFSET 0.00000 -0.00000 1.01383
						}
					}
				}
			}
		}
	}
	JOINT RHipJoint
	{
		OFFSET 0 0 0
		CHANNELS 3 Zrotation Yrotation Xrotation
		JOINT RightUpLeg
		{
			OFFSET -1.20803 -1.82114 0.91038
			CHANNELS 3 Zrotation Yrotation Xrotation
			JOINT RightLeg
			{
				OFFSET -2.54916 -7.00377 0.00000
				CHANNELS 3 Zrotation Yrotation Xrotation
				JOINT RightFoot
				{
					OFFSET -2.56374 -7.04382 0.00000
					CHANNELS 3 Zrotation Yrotation Xrotation
					JOINT RightToeBase
					{
						OFFSET -0.23520 -0.64621 2.09921
						CHANNELS 3 Zrotation Yrotation Xrotation
						End Site
						{
							OFFSET -0.00000 -0.00000 1.10065
						}
					}
				}
			}
		}
	}
	JOINT LowerBack
	{
		OFFSET 0 0 0
		CHANNELS 3 Zrotation Yrotation Xrotation
		JOINT Spine
		{
			OFFSET 0.05492 2.10797 -0.12074
			CHANNELS 3 Zrotation Yrotation Xrotation
			JOINT Spine1
			{
				OFFSET 0.04577 2.11592 -0.04483
				CHANNELS 3 Zrotation Yrotation Xrotation
				JOINT Neck
				{
					OFFSET 0 0 0
					CHANNELS 3 Zrotation Yrotation Xrotation
					JOINT Neck1
					{
						OFFSET -0.10759 1.80167 0.15770
						CHANNELS 3 Zrotation Yrotation Xrotation
						JOINT Head
						{
							OFFSET 0.09237 1.77509 -0.40848
							CHANNELS 3 Zrotation Yrotation Xrotation
							End Site
							{
								OFFSET 0.03805 1.84093 -0.15754
							}
						}
					}
				}
				JOINT LeftShoulder
				{
					OFFSET 0 0 0
					CHANNELS 3 Zrotation Yrotation Xrotation
					JOINT LeftArm
					{
						OFFSET 3.42372 1.09575 -0.28209
						CHANNELS 3 Zrotation Yrotation Xrotation
						JOINT LeftForeArm
						{
							OFFSET 4.95681 -0.00000 0.00000
							CHANNELS 3 Zrotation Yrotation Xrotation
							JOINT LeftHand
							{
								OFFSET 3.40915 -0.00000 0.00000
								CHANNELS 3 Zrotation Yrotation Xrotation
								JOINT LeftFingerBase
								{
									OFFSET 0 0 0
									CHANNELS 3 Zrotation Yrotation Xrotation
									JOINT LeftHandIndex1
									{
										OFFSET 0.61640 -0.00000 0.00000
										CHANNELS 3 Zrotation Yrotation Xrotation
										End Site
										{
											OFFSET 0.49696 -0.00000 0.00000
										}
									}
								}
								JOINT LThumb
								{
									OFFSET 0 0 0
									CHANNELS 3 Zrotation Yrotation Xrotation
									End Site
									{
										OFFSET 0.50455 -0.00000 0.50455
									}
								}
							}
						}
					}
				}
				JOINT RightShoulder
				{
					OFFSET 0 0 0
					CHANNELS 3 Zrotation Yrotation Xrotation
					JOINT RightArm
					{
						OFFSET -3.24731 1.15872 -0.32221
						CHANNELS 3 Zrotation Yrotation Xrotation
						JOINT RightForeArm
						{
							OFFSET -5.35200 -0.00000 0.00000
							CHANNELS 3 Zrotation Yrotation Xrotation
							JOINT RightHand
							{
								OFFSET -3.43721 -0.00000 -0.00000
								CHANNELS 3 Zrotation Yrotation Xrotation
								JOINT RightFingerBase
								{
									OFFSET 0 0 0
									CHANNELS 3 Zrotation Yrotation Xrotation
									JOINT RightHandIndex1
									{
										OFFSET -0.72009 -0.00000 0.00000
										CHANNELS 3 Zrotation Yrotation Xrotation
										End Site
										{
											OFFSET -0.58056 -0.00000 0.00000
										}
									}
								}
								JOINT RThumb
								{
									OFFSET 0 0 0
									CHANNELS 3 Zrotation Yrotation Xrotation
									End Site
									{
										OFFSET -0.58942 -0.00000 0.58942
									}
								}
							}
						}
					}
				}
			}
		}
	}
}
MOTION
Frames: 13
Frame Time: .0083333
19.9548 17.3349 -7.7789 351.2750 -2.7950 358.3920 0.0000 0.0000 0.0000 -0.4960 -11.6939 -28.0257 2.3992 9.6523 27.8578 0.3728 -8.7584 -11.6628 0.9446 -6.1900 -17.3367 0.0000 0.0000 0.0000 31.9565 -5.2421 8.3110 -0.8240 -5.7915 16.1808 -1.2361 2.6138 -20.3155 -0.0453 -1.3740 3.7786 7.7749 -0.1504 7.7702 4.7026 0.3757 3.8326 0.4852 0.2393 -0.3487 -8.6282 -1.8075 -11.8532 3.5694 -1.6568 39.4396 2.8390 -1.5000 16.1991 -0.0000 -0.0000 0.0000 -92.4215 4.6809 17.5878 15.3148 -24.5828 -3.3558 -0.0000 0.0000 -0.1141 20.5361 19.4999 7.1275 -7.1250 0.0000 -0.0000 -7.7983 50.5318 -1.0688 -0.0000 -0.0000 0.0000 85.0777 -0.9648 13.9488 -16.9640 26.8103 -4.0711 0.0000 -0.0000 -11.2728 -19.0365 12.0972 -4.1359 7.1250 -0.0000 -0.0000 5.6881 -17.2442 3.7649
19.9711 17.3211 -7.6864 351.3110 -2.8455 358.3780 0.0000 0.0000 0.0000 -0.4769 -12.0439 -27.8647 2.2628 9.3933 27.0335 0.2801 -9.9463 -10.9544 0.8823 -5.9881 -16.7498 0.0000 0.0000 0.0000 31.7734 -5.4465 8.6865 -0.8119 -5.7502 16.0613 -1.2475 2.8165 -20.3710 -0.0438 -1.3510 3.7150 7.8431 -0.0706 7.7024 4.5848 0.4750 3.8556 0.3176 0.2931 -0.2803 -8.6195 -1.8973 -12.0173 3.7842 -1.8644 39.5389 2.9021 -1.5581 16.3118 0.0000 0.0000 0.0000 -92.2000 4.5031 17.4211 14.9303 -24.0489 -3.1975 -0.0000 -0.0000 0.2113 20.4265 19.2504 7.0001 -7.1250 0.0000 -0.0000 -7.8296 50.2553 -1.0197 0.0000 0.0000 0.0000 85.2032 -0.9288 13.5847 -17.0576 26.9336 -4.1134 0.0000 -0.0000 -11.1674 -19.0399 11.8141 -4.0416 7.1250 -0.0000 -0.0000 5.6806 -17.5402 3.7229
19.9863 17.3087 -7.5927 351.3610 -2.8742 358.2890 0.0000 0.0000 0.0000 -0.5803 -12.1351 -27.7446 2.1578 9.1873 26.3830 0.1265 -11.2775 -9.6599 0.7563 -5.5542 -15.4962 0.0000 0.0000 0.0000 31.6977 -5.3536 9.2605 -0.8062 -5.7303 16.0038 -1.2620 2.6063 -20.5366 -0.0395 -1.2829 3.5277 7.7738 -0.0752 7.6918 4.5692 0.4604 3.8843 0.3410 0.2865 -0.2462 -8.7160 -1.8704 -12.0337 3.9280 -1.8501 39.5273 2.9856 -1.5472 16.3109 -0.0000 0.0000 0.0000 -92.1908 4.4144 17.0364 14.6365 -23.6373 -3.0787 -0.0000 -0.0000 0.6432 20.8042 18.3263 6.8126 -7.1250 0.0000 -0.0000 -7.1954 49.3553 -0.7764 -0.0000 0.0000 0.0000 85.1066 -0.8579 13.4676 -17.0828 26.9668 -4.1248 0.0000 -0.0000 -11.0612 -19.3354 11.8755 -4.1300 7.1250 -0.0000 -0.0000 5.4753 -17.4515 3.5978
20.0034 17.2969 -7.4962 351.4280 -3.0138 358.2080 0.0000 0.0000 0.0000 -0.8360 -11.7375 -27.7042 2.0769 9.0244 25.8717 -0.0737 -12.6165 -7.8414 0.6935 -5.3236 -14.8339 0.0000 0.0000 0.0000 31.6028 -5.1271 9.9042 -0.8108 -5.7461 16.0495 -1.2801 2.3341 -20.7474 -0.0321 -1.1563 3.1789 7.6174 -0.1111 7.6725 4.6083 0.4027 3.8548 0.4722 0.2541 -0.2718 -8.7556 -1.7532 -11.8520 3.8345 -1.6434 39.5007 2.9837 -1.4807 16.2324 -0.0000 -0.0000 0.0000 -92.3157 4.5424 16.7377 14.3301 -23.2046 -2.9569 -0.0000 0.0000 -0.0516 20.9925 17.9951 6.7605 -7.1250 0.0000 -0.0000 -6.9233 49.0390 -0.6926 -0.0000 -0.0000 0.0000 84.8575 -1.0568 13.8929 -17.1902 27.1079 -4.1736 0.0000 -0.0000 -11.3366 -19.5100 12.2650 -4.3045 7.1250 -0.0000 -0.0000 5.3621 -17.0281 3.5726
20.0231 17.2853 -7.3995 351.4580 -3.2188 358.1930 0.0000 0.0000 0.0000 -1.0944 -11.1737 -27.7136 2.0215 8.9106 25.5161 -0.2596 -13.8642 -6.2070 0.7370 -5.4845 -15.2958 0.0000 0.0000 0.0000 31.4482 -5.0945 10.2654 -0.8264 -5.8001 16.2055 -1.2798 2.2504 -20.7642 -0.0075 -0.5609 1.5414 7.6068 -0.1036 7.6515 4.5670 0.4136 3.7969 0.4340 0.2574 -0.3200 -8.5942 -1.6978 -11.7957 3.6115 -1.5266 39.4978 2.8743 -1.4391 16.2022 0.0000 -0.0000 0.0000 -92.2829 4.6460 16.3638 14.0235 -22.7682 -2.8372 -0.0000 0.0000 -0.3925 20.5919 18.3312 6.7391 -7.1250 0.0000 -0.0000 -7.4018 49.3274 -0.7938 0.0000 -0.0000 0.0000 84.8205 -1.2911 14.0280 -17.3376 27.3006 -4.2410 0.0000 -0.0000 -11.5644 -19.3885 12.2969 -4.2865 7.1250 -0.0000 -0.0000 5.4473 -17.0052 3.6326
20.0444 17.2760 -7.3080 351.5050 -3.3852 358.2640 0.0000 0.0000 0.0000 -1.3578 -10.7492 -27.7648 1.9898 8.8448 25.3109 -0.3899 -14.7995 -5.1781 0.9128 -6.0877 -17.0390 0.0000 0.0000 0.0000 31.2975 -4.9446 10.4364 -0.8502 -5.8809 16.4391 -1.2649 2.1359 -20.6650 -0.0001 0.0719 -0.1976 7.5239 -0.1010 7.5079 4.5745 0.3949 3.7969 0.4894 0.2489 -0.2425 -8.5448 -1.6847 -11.9475 3.4503 -1.4448 39.5391 2.8088 -1.4209 16.2536 0.0000 0.0000 0.0000 -92.3413 4.5451 15.5556 13.7246 -22.3397 -2.7226 -0.0000 -0.0000 0.3212 20.7222 17.7491 6.5787 -7.1250 0.0000 -0.0000 -7.1171 48.7411 -0.6598 0.0000 0.0000 0.0000 84.6927 -1.2431 13.8312 -17.4026 27.3854 -4.2709 0.0000 -0.0000 -11.4727 -19.1269 12.1341 -4.1694 7.1250 -0.0000 -0.0000 5.6259 -17.1979 3.7291
20.0670 17.2642 -7.2181 351.6100 -3.4940 358.3100 0.0000 0.0000 0.0000 -1.7365 -10.2083 -27.7588 1.9738 8.8112 25.2066 -0.5545 -15.9317 -3.9111 0.9184 -6.1058 -17.0917 0.0000 0.0000 0.0000 31.0957 -4.7137 10.6748 -0.8835 -5.9919 16.7610 -1.2805 2.2092 -20.7789 -0.0001 0.0546 -0.1499 7.3370 -0.0594 7.4172 4.6168 0.4275 3.8034 0.6343 0.2639 -0.1869 -8.7327 -1.7176 -12.1424 3.5678 -1.4664 39.6478 2.8955 -1.4447 16.3666 -0.0000 -0.0000 0.0000 -92.4584 4.4344 14.8972 13.5224 -22.0479 -2.6462 -0.0000 -0.0000 1.1196 20.5162 18.1102 6.6349 -7.1250 0.0000 -0.0000 -7.4132 49.0860 -0.7507 -0.0000 -0.0000 0.0000 84.4503 -1.1716 13.6499 -17.4554 27.4542 -4.2952 0.0000 -0.0000 -11.4336 -19.0097 12.0269 -4.1061 7.1250 -0.0000 -0.0000 5.7055 -17.3200 3.7670
20.0917 17.2484 -7.1239 351.7450 -3.5391 358.2650 0.0000 0.0000 0.0000 -2.1338 -9.8906 -27.4730 1.9628 8.7883 25.1352 -0.7239 -17.1515 -2.8317 0.7746 -5.6196 -15.6847 0.0000 0.0000 0.0000 30.8254 -4.6448 10.8564 -0.9352 -6.1601 17.2495 -1.3002 2.3204 -20.9187 -0.0001 0.0569 -0.1563 7.2934 0.0127 7.4412 4.5220 0.5264 3.7534 0.5522 0.3113 -0.2482 -8.7959 -1.7618 -12.0308 3.7718 -1.6063 39.6005 2.9727 -1.4836 16.3277 0.0000 0.0000 0.0000 -92.2968 4.4713 14.9296 13.3392 -21.7821 -2.5778 -0.0000 -0.0000 1.0751 19.9110 17.6028 6.2512 -7.1250 0.0000 -0.0000 -7.8532 48.4679 -0.6756 0.0000 0.0000 0.0000 84.4887 -1.2712 13.3511 -17.4501 27.4473 -4.2928 0.0000 -0.0000 -11.4840 -19.3962 12.1085 -4.2239 7.1250 -0.0000 -0.0000 5.4378 -17.2021 3.6027
20.1172 17.2282 -7.0289 351.8980 -3.5249 358.1780 0.0000 0.0000 0.0000 -2.4768 -10.0951 -26.8793 1.9564 8.7747 25.0929 -0.8454 -18.0271 -2.1761 0.6998 -5.3474 -14.9020 0.0000 0.0000 0.0000 30.5835 -4.5516 10.9436 -1.0041 -6.3765 17.8807 -1.2956 2.0963 -20.9317 -0.0027 0.3337 -0.9170 7.2826 0.0288 7.4619 4.3752 0.5507 3.7212 0.4037 0.3232 -0.2911 -8.7707 -1.7893 -11.8988 3.9210 -1.7282 39.5089 3.0107 -1.5088 16.2568 0.0000 0.0000 0.0000 -92.0882 4.4598 14.8022 13.0845 -21.4109 -2.4841 -0.0000 -0.0000 1.0751 19.6056 16.6454 5.8258 -7.1250 0.0000 -0.0000 -7.8877 47.4314 -0.4760 0.0000 0.0000 0.0000 84.6450 -1.3936 13.0327 -17.4880 27.4966 -4.3102 0.0000 -0.0000 -11.5108 -19.6690 12.0396 -4.2639 7.1250 -0.0000 -0.0000 5.2462 -17.2512 3.4690
20.1447 17.2115 -6.9321 352.2940 -3.5192 358.1970 0.0000 0.0000 0.0000 -3.0453 -10.5549 -26.2368 1.9604 8.7831 25.1193 -0.9382 -18.4956 -1.3123 0.6209 -5.0427 -14.0303 0.0000 0.0000 0.0000 30.1067 -4.2939 11.0191 -1.0748 -6.5900 18.5063 -1.3101 1.9732 -21.0818 -0.0018 0.2754 -0.7568 6.9620 0.0235 7.3176 4.2149 0.5081 3.7004 0.4184 0.3007 -0.2384 -8.7090 -1.8142 -12.0412 3.9028 -1.7654 39.5790 2.9879 -1.5197 16.3316 -0.0000 -0.0000 0.0000 -91.9946 4.3640 14.1965 12.8434 -21.0573 -2.3967 -0.0000 -0.0000 1.7158 19.7731 18.2579 6.4260 -7.1250 0.0000 -0.0000 -8.1692 49.1252 -0.8361 -0.0000 -0.0000 0.0000 84.6459 -1.5290 12.9524 -17.6871 27.7547 -4.4026 0.0000 -0.0000 -11.4685 -19.5263 11.7859 -4.1431 7.1250 -0.0000 -0.0000 5.3402 -17.5297 3.4990
20.1779 17.2032 -6.8316 352.5460 -3.5785 358.2190 0.0000 0.0000 0.0000 -3.4690 -10.9563 -25.6475 1.9741 8.8119 25.2087 -0.9982 -18.6960 -0.4891 0.5145 -4.5974 -12.7636 0.0000 0.0000 0.0000 29.6973 -4.1925 11.1865 -1.1372 -6.7725 19.0430 -1.3414 2.0587 -21.3192 -0.0045 0.4335 -1.1911 6.7698 0.0020 7.2367 4.1502 0.4632 3.6371 0.4609 0.2751 -0.2637 -8.5218 -1.7917 -12.1612 3.6248 -1.6682 39.7042 2.8505 -1.4922 16.4148 -0.0000 -0.0000 0.0000 -91.9879 4.4848 13.8709 12.7296 -20.8897 -2.3560 -0.0000 -0.0000 1.7869 20.3080 19.3661 6.9962 -7.1250 0.0000 -0.0000 -7.9804 50.3559 -1.0593 -0.0000 -0.0000 0.0000 84.5387 -1.7478 12.7898 -17.9060 28.0366 -4.5050 0.0000 -0.0000 -11.1535 -19.2858 11.7020 -4.0595 7.1250 -0.0000 -0.0000 5.5067 -17.6374 3.5961
20.2134 17.1977 -6.7269 352.3780 -3.8405 358.0360 0.0000 0.0000 0.0000 -3.4434 -11.1077 -24.9978 1.9945 8.8547 25.3418 -1.0578 -18.7728 0.7641 0.3120 -3.5911 -9.9291 0.0000 0.0000 0.0000 29.6881 -4.2356 11.5948 -1.1911 -6.9255 19.4950 -1.3426 1.9024 -21.3670 -0.0326 1.1646 -3.2019 7.0131 0.0145 7.4163 4.2130 0.5148 3.6269 0.3869 0.3000 -0.3686 -8.4610 -1.7456 -12.1601 3.4856 -1.5625 39.7233 2.7956 -1.4590 16.4135 0.0000 0.0000 0.0000 -92.0717 4.7268 13.6805 12.7567 -20.9297 -2.3657 -0.0000 -0.0000 1.6256 20.1494 19.1892 6.8769 -7.1250 0.0000 -0.0000 -8.0810 50.1472 -1.0312 0.0000 0.0000 0.0000 84.4215 -1.9807 12.5515 -18.0833 28.2637 -4.5886 0.0000 -0.0000 -10.9862 -19.2827 11.8812 -4.1199 7.1250 -0.0000 -0.0000 5.5123 -17.4499 3.6225
20.2472 17.1971 -6.6171 352.3900 -4.2985 357.7530 0.0000 0.0000 0.0000 -3.5909 -11.1708 -24.3234 2.0212 8.9102 25.5147 -1.0957 -18.5919 2.6443 0.1187 -2.2212 -6.1175 0.0000 0.0000 0.0000 29.4936 -4.0614 12.2220 -1.2353 -7.0482 19.8584 -1.3182 1.8286 -21.1842 -0.0656 1.6520 -4.5448 7.0940 0.1115 7.5702 4.1861 0.6581 3.7017 0.3031 0.3734 -0.3678 -8.5620 -1.7301 -12.1687 3.6055 -1.5566 39.6980 2.8675 -1.4554 16.4038 -0.0000 -0.0000 0.0000 -92.0865 4.7064 13.1896 12.6461 -20.7666 -2.3263 -0.0000 -0.0000 2.1080 20.0640 18.9857 6.7763 -7.1250 0.0000 -0.0000 -8.1026 49.9231 -0.9891 -0.0000 -0.0000 0.0000 84.3227 -2.0976 12.4500 -18.1779 28.3844 -4.6335 0.0000 -0.0000 -10.9971 -19.6163 12.2421 -4.3218 7.1250 -0.0000 -0.0000 5.2876 -17.0430 3.5208
